<?xml version="1.0" standalone="no"?>
<!DOCTYPE svg PUBLIC "-//W3C//DTD SVG 20010904//EN"
 "http://www.w3.org/TR/2001/REC-SVG-20010904/DTD/svg10.dtd">
<svg version="1.0" xmlns="http://www.w3.org/2000/svg"
 width="1111.000000pt" height="1111.000000pt" viewBox="0 0 1111.000000 1111.000000"
 preserveAspectRatio="xMidYMid meet">
<metadata>
Created by potrace 1.14, written by Peter Selinger 2001-2017
</metadata>
<g transform="translate(0.000000,1111.000000) scale(0.100000,-0.100000)"
fill="#000000" stroke="none">
<path d="M2345 11094 c-150 -22 -164 -25 -287 -65 -127 -41 -263 -105 -368
-172 -36 -23 -67 -44 -70 -47 -3 -3 -32 -27 -65 -52 -138 -105 -287 -294 -346
-440 -38 -91 -49 -163 -45 -271 13 -338 236 -622 572 -731 128 -42 181 -27
208 57 12 37 -34 99 -84 112 -40 11 -156 93 -192 136 -18 23 -41 50 -50 61
-30 36 -71 130 -83 193 -16 82 -11 157 14 210 71 150 368 322 611 352 87 11
235 6 310 -11 479 -109 803 -532 1025 -1341 29 -106 36 -147 35 -220 -1 -287
-168 -588 -570 -1025 -45 -49 -91 -99 -102 -112 -11 -13 -52 -59 -91 -102 -40
-44 -81 -89 -92 -102 -11 -12 -48 -54 -83 -92 -35 -38 -71 -79 -80 -90 -86
-99 -129 -147 -137 -156 -33 -34 -253 -308 -327 -407 -360 -481 -590 -951
-728 -1496 -23 -87 -42 -169 -44 -183 -2 -14 -13 -81 -24 -150 -34 -203 -45
-352 -46 -580 0 -262 15 -454 49 -630 3 -14 10 -52 16 -85 25 -142 93 -364
157 -515 229 -541 614 -956 1122 -1209 149 -74 212 -100 405 -165 72 -24 159
-55 195 -69 372 -145 910 -321 1199 -393 9 -2 44 -11 79 -19 426 -105 809
-525 1077 -1183 l42 -102 38 97 c94 240 276 557 421 734 193 236 421 392 664
454 137 35 434 119 535 153 44 14 85 27 90 28 32 7 457 154 500 173 51 23 272
105 367 136 314 102 565 235 803 424 72 57 279 259 329 321 205 256 348 520
448 825 31 95 73 256 83 315 3 19 8 42 10 50 2 8 7 35 10 60 3 25 8 56 10 70
5 30 12 95 25 220 9 94 7 539 -4 635 -9 83 -18 158 -21 175 -1 8 -6 35 -9 60
-26 191 -101 487 -174 695 -153 430 -345 781 -646 1180 -79 105 -342 425 -408
495 -12 14 -54 61 -93 105 -38 44 -72 82 -75 85 -3 3 -91 100 -194 215 -104
116 -205 228 -226 250 -54 58 -199 241 -245 310 -22 33 -43 62 -47 63 -5 2 -8
8 -8 12 0 5 -13 31 -28 57 -90 156 -143 342 -138 487 3 92 41 253 101 426 15
41 28 82 30 90 16 75 167 393 231 489 16 24 34 51 39 60 92 145 259 303 405
383 311 169 694 144 1000 -65 65 -44 153 -136 175 -182 37 -74 22 -242 -29
-339 -54 -102 -157 -201 -263 -252 -40 -20 -80 -45 -88 -57 -25 -35 -19 -85
14 -117 25 -25 35 -29 73 -26 168 15 393 146 514 301 64 81 131 228 148 321 3
16 8 40 11 54 10 41 6 189 -6 239 -66 284 -336 575 -689 744 -88 42 -216 90
-272 101 -13 3 -54 12 -93 20 -145 31 -400 41 -515 22 -265 -46 -475 -127
-675 -258 -89 -59 -83 -54 -180 -134 -293 -242 -594 -643 -796 -1059 -34 -71
-64 -132 -66 -134 -2 -3 -2043 -5 -2145 -2 -24 1 -32 13 -86 124 -209 430
-527 851 -823 1088 -136 110 -335 227 -474 279 -33 13 -69 26 -80 31 -19 8
-129 37 -170 45 -11 2 -31 6 -45 8 -72 14 -117 18 -240 20 -74 2 -175 -3 -225
-10z m2378 -4514 l0 -2555 -428 -2 c-476 -2 -492 -4 -539 -66 -30 -41 -39 -71
-37 -124 2 -79 36 -131 101 -160 30 -14 104 -16 505 -18 259 -2 476 -3 483 -4
19 -2 71 -122 89 -205 28 -134 -2 -279 -84 -403 -109 -165 -328 -316 -543
-375 -65 -18 -92 -20 -200 -14 -394 20 -722 209 -955 550 -140 206 -181 371
-179 731 0 144 7 299 19 440 10 121 17 192 20 220 2 17 7 53 10 80 3 28 7 61
10 75 2 14 7 48 10 75 6 54 61 384 70 425 3 14 8 36 11 50 66 328 204 766 341
1079 67 155 170 367 195 404 11 15 16 27 12 27 -3 0 -2 6 3 13 6 6 23 35 38
62 15 28 68 122 119 210 105 185 86 153 200 347 354 605 485 880 551 1152 14
55 28 126 32 156 9 71 10 293 1 347 l-7 42 76 -2 76 -2 0 -2555z m487 0 l0
-2557 -150 -1 c-146 0 -150 1 -150 22 -1 28 -1 4954 -1 5033 l1 62 150 -1 150
-1 0 -2557z m485 0 l0 -2555 -147 -1 c-105 -1 -148 1 -149 10 -1 6 -2 1157 -3
2558 l-1 2547 150 -2 150 -2 0 -2555z m490 2 l0 -2557 -147 -2 c-145 -2 -148
-2 -152 20 -5 25 -5 5079 0 5088 2 3 70 7 151 7 l148 1 0 -2557z m328 2485
c-18 -183 0 -362 58 -562 11 -38 24 -79 29 -90 4 -11 23 -58 41 -105 63 -163
357 -711 547 -1018 12 -20 27 -46 33 -57 5 -11 15 -29 22 -40 150 -250 370
-676 442 -859 20 -50 43 -104 50 -121 66 -148 228 -682 262 -865 2 -13 11 -56
19 -95 8 -38 17 -86 20 -105 3 -19 9 -53 14 -75 5 -22 12 -62 16 -90 3 -27 8
-58 10 -69 2 -10 13 -93 24 -185 11 -91 23 -179 25 -196 2 -16 7 -70 10 -120
4 -49 8 -108 11 -130 2 -22 6 -157 8 -300 4 -284 -5 -384 -49 -530 -43 -141
-154 -313 -292 -450 -230 -230 -510 -349 -828 -350 -110 0 -141 4 -200 23
-174 58 -349 173 -456 299 -159 189 -187 409 -79 623 l28 55 463 0 c486 -1
526 2 575 43 73 62 77 212 8 273 -58 51 -57 51 -520 51 l-434 0 0 2558 0 2559
75 0 75 0 -7 -72z"/>
</g>
</svg>
